<svg xmlns="http://www.w3.org/2000/svg" width="117" height="93" viewBox="0 0 117 93" fill="none">
  <path d="M3.54585 92.1284C12.3743 85.2671 22.7364 81.1678 30.7304 72.8556C32.2758 71.1977 30.6227 68.9036 29.1633 68.8777C27.1753 68.8978 24.3852 68.6836 21.7398 68.9133C25.0545 64.0542 27.0219 58.3986 29.7907 52.9777C32.3035 47.884 36.1805 44.1954 40.483 41.5366C40.5328 43.3605 40.8472 45.1613 41.0332 47.126C43.684 61.6743 65.9905 92.0369 81.0888 76.8612C89.7396 68.3395 86.4273 48.973 79.5817 41.0355C70.5451 30.5458 57.1153 29.1222 45.0375 33.5231C45.9299 27.3512 48.5543 21.486 52.2536 16.1371C60.1724 5.08875 71.932 3.6103 82.6631 8.16341C102.248 16.5183 117.672 42.4508 108.659 66.8492C108.291 67.9477 109.382 69.0718 110.151 68.0908C128.2 44.4312 101.706 11.2328 83.5885 3.20782C62.9203 -5.96688 42.3491 12.7314 40.462 35.9016C39.1558 36.6245 37.5851 37.3704 36.2873 38.3972C26.6487 44.719 24.0537 56.5237 18.0812 66.0313C17.2047 63.0603 16.192 59.9489 15.8361 56.6277C15.5052 54.2187 12.6902 53.092 11.5705 55.7796C6.83429 66.856 1.42432 77.5339 0.0322046 89.6912C-0.0463963 91.6789 1.86319 93.6458 3.54585 92.1284ZM44.8024 39.486C47.2948 38.5077 49.9236 37.6699 52.4326 37.2997C69.1855 34.1687 85.1996 47.7089 80.7286 68.5133C78.6047 78.1439 68.9737 75.0189 63.7196 71.9712C56.0434 67.6101 49.8466 59.1592 46.5516 50.1515C45.5221 46.4319 45.03 42.9704 44.8024 39.486ZM15.3539 72.9722C15.2257 73.1357 15.3702 73.5805 15.5067 73.721C17.3916 74.7761 19.7727 74.5691 22.2815 74.1991C16.9537 78.1661 11.2003 81.1032 5.73608 84.9297C7.39702 77.7772 10.2613 70.9768 13.2532 64.0134C13.985 66.5399 14.8454 68.9029 14.92 71.6389C14.9361 72.2469 15.081 72.6912 15.3539 72.9722Z" fill="white"/>
</svg>