<svg xmlns="http://www.w3.org/2000/svg" width="12" height="12" viewBox="0 0 12 12" fill="none">
  <g clip-path="url(#clip0_13271_8012)">
    <rect width="12" height="12" fill="#101010"/>
    <path d="M4.9054 2.49533C4.27163 2.03082 3.62138 1.45831 3.15858 0.764119L2.75344 0.156432C2.66761 0.0276894 2.50763 -0.0296387 2.35896 0.0149863C2.21065 0.0599628 2.10938 0.196603 2.10938 0.351455V5.86733C1.90172 5.74623 1.66352 5.67177 1.40625 5.67177C0.63068 5.67177 0 6.30245 0 7.07802C0 7.85359 0.63068 8.48424 1.40625 8.48424C2.18182 8.48424 2.8125 7.85356 2.8125 7.07799V1.50578C3.30928 2.13371 3.9307 2.65257 4.48964 3.06249C4.76428 3.26368 4.92188 3.57406 4.92188 3.91393C4.92188 4.49551 4.44877 4.96862 3.86719 4.96862C3.67287 4.96862 3.51562 5.12586 3.51562 5.32018C3.51562 5.5145 3.67287 5.67174 3.86719 5.67174C4.8364 5.67174 5.625 4.88314 5.625 3.91393C5.625 3.35602 5.35617 2.82594 4.9054 2.49533Z" fill="white"/>
    <path d="M11.552 2.87267L6.58322 4.27892C6.43216 4.32218 6.32812 4.46018 6.32812 4.6171V9.38297C6.12047 9.26187 5.88227 9.18741 5.625 9.18741C4.84943 9.18741 4.21875 9.81809 4.21875 10.5937C4.21875 11.3692 4.84943 11.9999 5.625 11.9999C6.40057 11.9999 7.03125 11.3692 7.03125 10.5937C7.03125 10.5135 7.03125 6.28866 7.03125 6.28866L11.2969 5.08329V7.97672C11.0892 7.85562 10.851 7.78116 10.5938 7.78116C9.81818 7.78116 9.1875 8.41184 9.1875 9.18741C9.1875 9.96298 9.81818 10.5937 10.5938 10.5937C11.3693 10.5937 12 9.96298 12 9.18741C12 9.10725 12 3.21085 12 3.21085C12 2.97832 11.7776 2.80894 11.552 2.87267Z" fill="white"/>
  </g>
  <defs>
    <clipPath id="clip0_13271_8012">
      <rect width="12" height="12" fill="white"/>
    </clipPath>
  </defs>
</svg>